<svg xmlns="http://www.w3.org/2000/svg" width="960" height="230" viewBox="0 0 960 230" role="img" aria-label="Yael1010 software engineering profile banner">
  <defs><linearGradient id="sky" x1="0" y1="0" x2="1" y2="1"><stop stop-color="#eff6ff"/><stop offset="1" stop-color="#bfdbfe"/></linearGradient><linearGradient id="glow" x1="0" y1="0" x2="1" y2="0"><stop stop-color="#0d6efd"/><stop offset="1" stop-color="#0284c7"/></linearGradient></defs>
  <rect width="960" height="230" rx="16" fill="url(#sky)"/><circle cx="770" cy="55" r="30" fill="#fbbf24" opacity=".9"/>
  <path d="M0 182h960v48H0z" fill="#173b72"/><g fill="#255394"><path d="M0 140h35v42H0zM44 118h44v64H44zM98 150h29v32H98zM137 102h54v80h-54zM202 131h35v51h-35zM248 86h61v96h-61zM319 125h36v57h-36zM366 109h53v73h-53zM430 147h31v35h-31zM474 92h67v90h-67zM553 126h41v56h-41zM606 107h50v75h-50zM667 142h31v40h-31zM710 116h55v66h-55zM777 96h44v86h-44zM833 132h35v50h-35zM879 112h47v70h-47zM937 145h23v37h-23z"/></g>
  <rect x="72" y="55" width="8" height="78" rx="4" fill="url(#glow)"/><text x="103" y="90" fill="#0f2b59" font-family="Arial, sans-serif" font-size="42" font-weight="700">YAEL1010</text><text x="105" y="120" fill="#0d6efd" font-family="monospace" font-size="16">SOFTWARE ENGINEERING STUDENT</text><text x="105" y="150" fill="#234a80" font-family="monospace" font-size="14">build · learn · create</text>
</svg>
