<svg xmlns="http://www.w3.org/2000/svg" width="960" height="230" viewBox="0 0 960 230" role="img" aria-label="Yael1010 software engineering profile banner">
  <defs>
    <linearGradient id="sky" x1="0" y1="0" x2="1" y2="1"><stop stop-color="#071a3a"/><stop offset=".55" stop-color="#0d2d63"/><stop offset="1" stop-color="#073b7a"/></linearGradient>
    <linearGradient id="glow" x1="0" y1="0" x2="1" y2="0"><stop stop-color="#38bdf8"/><stop offset="1" stop-color="#60a5fa"/></linearGradient>
    <filter id="blur"><feGaussianBlur stdDeviation="10"/></filter>
  </defs>
  <rect width="960" height="230" rx="16" fill="url(#sky)"/>
  <circle cx="770" cy="55" r="46" fill="#60a5fa" opacity=".16" filter="url(#blur)"/><circle cx="770" cy="55" r="28" fill="#bfdbfe" opacity=".9"/>
  <g fill="#93c5fd" opacity=".65"><circle cx="80" cy="38" r="1.5"/><circle cx="162" cy="72" r="1"/><circle cx="243" cy="32" r="1.5"/><circle cx="337" cy="61" r="1"/><circle cx="507" cy="37" r="1.5"/><circle cx="651" cy="84" r="1"/><circle cx="884" cy="37" r="1.5"/></g>
  <path d="M0 182h960v48H0z" fill="#041126"/><g fill="#0a2450"><path d="M0 140h35v42H0zM44 118h44v64H44zM98 150h29v32H98zM137 102h54v80h-54zM202 131h35v51h-35zM248 86h61v96h-61zM319 125h36v57h-36zM366 109h53v73h-53zM430 147h31v35h-31zM474 92h67v90h-67zM553 126h41v56h-41zM606 107h50v75h-50zM667 142h31v40h-31zM710 116h55v66h-55zM777 96h44v86h-44zM833 132h35v50h-35zM879 112h47v70h-47zM937 145h23v37h-23z"/></g>
  <g fill="#38bdf8" opacity=".55"><rect x="54" y="132" width="4" height="8"/><rect x="72" y="145" width="4" height="8"/><rect x="154" y="116" width="5" height="10"/><rect x="173" y="135" width="5" height="10"/><rect x="268" y="105" width="5" height="10"/><rect x="290" y="130" width="5" height="10"/><rect x="492" y="111" width="5" height="10"/><rect x="519" y="139" width="5" height="10"/><rect x="628" y="122" width="5" height="10"/><rect x="736" y="131" width="5" height="10"/><rect x="796" y="111" width="5" height="10"/><rect x="900" y="127" width="5" height="10"/></g>
  <rect x="72" y="55" width="8" height="78" rx="4" fill="url(#glow)"/>
  <text x="103" y="90" fill="#eff6ff" font-family="Arial, sans-serif" font-size="42" font-weight="700">YAEL1010</text>
  <text x="105" y="120" fill="#93c5fd" font-family="monospace" font-size="16">SOFTWARE ENGINEERING STUDENT</text>
  <text x="105" y="150" fill="#dbeafe" font-family="monospace" font-size="14">build · learn · create</text>
</svg>
